<svg width="167" height="26" viewBox="0 0 167 26" fill="none" xmlns="http://www.w3.org/2000/svg">
<g filter="url(#filter0_d_2_63)">
<path d="M5.94092 6.03804C6.16517 6.03804 6.34695 5.84898 6.34695 5.61576C6.34695 5.38254 6.16517 5.19348 5.94092 5.19348C5.71667 5.19348 5.53488 5.38254 5.53488 5.61576C5.53488 5.84898 5.71667 6.03804 5.94092 6.03804Z" fill="url(#paint0_linear_2_63)"/>
</g>
<g filter="url(#filter1_d_2_63)">
<path d="M1.75879 18.4063C1.98304 18.4063 2.16483 18.2173 2.16483 17.984C2.16483 17.7508 1.98304 17.5618 1.75879 17.5618C1.53454 17.5618 1.35275 17.7508 1.35275 17.984C1.35275 18.2173 1.53454 18.4063 1.75879 18.4063Z" fill="url(#paint1_linear_2_63)"/>
</g>
<g filter="url(#filter2_d_2_63)">
<path d="M25.7994 21.8016C26.0236 21.8016 26.2054 21.6125 26.2054 21.3793C26.2054 21.1461 26.0236 20.957 25.7994 20.957C25.5751 20.957 25.3933 21.1461 25.3933 21.3793C25.3933 21.6125 25.5751 21.8016 25.7994 21.8016Z" fill="url(#paint2_linear_2_63)"/>
</g>
<g filter="url(#filter3_d_2_63)">
<path d="M6.78417 14.6515C6.87061 14.6515 6.94069 14.5786 6.94069 14.4887C6.94069 14.3988 6.87061 14.3259 6.78417 14.3259C6.69773 14.3259 6.62766 14.3988 6.62766 14.4887C6.62766 14.5786 6.69773 14.6515 6.78417 14.6515Z" fill="url(#paint3_linear_2_63)"/>
</g>
<g filter="url(#filter4_d_2_63)">
<path d="M12.7809 1.51158C12.9167 1.51158 13.0268 1.39706 13.0268 1.25579C13.0268 1.11452 12.9167 1 12.7809 1C12.645 1 12.5349 1.11452 12.5349 1.25579C12.5349 1.39706 12.645 1.51158 12.7809 1.51158Z" fill="url(#paint4_linear_2_63)"/>
</g>
<g filter="url(#filter5_d_2_63)">
<path d="M3.48414 12.9061C3.40413 12.9187 3.32969 12.8679 3.30602 12.783C3.08414 12.0289 2.96745 11.9374 2.24182 11.965C2.15808 11.9675 2.08436 11.906 2.0723 11.8228C2.06008 11.7385 2.11225 11.6595 2.19265 11.6339C2.88669 11.4199 2.96142 11.3161 2.97862 10.5257C2.98067 10.438 3.03513 10.3669 3.11403 10.3545C3.19515 10.3417 3.26848 10.3929 3.29437 10.4773C3.51386 11.2306 3.63055 11.3221 4.35507 11.2946C4.4412 11.2929 4.51347 11.3525 4.52587 11.4379C4.53793 11.521 4.48797 11.5997 4.40536 11.6257C3.71053 11.8421 3.63675 11.9446 3.62177 12.7346C3.61767 12.8239 3.56193 12.894 3.48414 12.9061Z" fill="url(#paint5_linear_2_63)"/>
</g>
<path d="M16.6081 5.15349C16.3971 5.23638 16.2565 5.44604 16.2565 5.68004C16.2565 5.91404 16.3971 6.1236 16.6081 6.20649C18.2909 6.86314 19.6188 8.24416 20.2503 9.99436C20.3299 10.2137 20.5315 10.3601 20.7565 10.3601C20.9815 10.3601 21.1831 10.2137 21.2627 9.99436C21.8942 8.24416 23.2221 6.86314 24.9049 6.20649C25.1159 6.1236 25.2565 5.91404 25.2565 5.68004C25.2565 5.44604 25.1159 5.23638 24.9049 5.15349C23.2221 4.49684 21.8942 3.11579 21.2627 1.36562C21.1831 1.14625 20.9815 1 20.7565 1C20.5315 1 20.3299 1.14625 20.2503 1.36562C19.6188 3.11579 18.2909 4.49684 16.6081 5.15349ZM10.8706 4.57338C10.7487 4.29549 10.4815 4.12004 10.1909 4.12004C9.90036 4.12004 9.63316 4.29549 9.51126 4.57338C7.91397 8.16002 5.14232 11.0415 1.6925 12.7001C1.42531 12.8267 1.25656 13.1046 1.25656 13.4117C1.25656 13.7189 1.42531 13.9918 1.6925 14.1186C5.14111 15.7751 7.91507 18.658 9.50656 22.2453C9.62846 22.5232 9.89566 22.6986 10.1862 22.6986C10.4768 22.6986 10.744 22.5232 10.8659 22.2453C12.4604 18.6548 15.2322 15.7721 18.6846 14.1137C18.9518 13.9871 19.1206 13.7092 19.1206 13.4069C19.1206 13.1046 18.9518 12.8267 18.6846 12.7001C15.2354 11.0449 12.4634 8.15992 10.8706 4.57338ZM20.2503 16.9656C19.6188 18.7158 18.2909 20.0968 16.6081 20.7535C16.3971 20.8364 16.2565 21.0461 16.2565 21.2801C16.2565 21.5141 16.3971 21.7236 16.6081 21.8065C18.2909 22.4632 19.6188 23.8442 20.2503 25.5944C20.3299 25.8137 20.5315 25.96 20.7565 25.96C20.9815 25.96 21.1831 25.8137 21.2627 25.5944C21.8942 23.8442 23.2221 22.4632 24.9049 21.8065C25.1159 21.7236 25.2565 21.5141 25.2565 21.2801C25.2565 21.0461 25.1159 20.8364 24.9049 20.7535C23.2221 20.0968 21.8942 18.7158 21.2627 16.9656C21.1831 16.7463 20.9815 16.6001 20.7565 16.6001C20.5315 16.6001 20.3299 16.7463 20.2503 16.9656Z" fill="url(#paint6_linear_2_63)"/>
<path d="M13.2283 16.0857C6.06413 18.6733 0.59967 21.7987 1.02303 23.0665C1.44639 24.3342 7.59725 23.2643 14.7614 20.6767C21.9255 18.0891 27.39 14.9637 26.9666 13.696C26.5432 12.4282 20.3924 13.4981 13.2283 16.0857Z" stroke="url(#paint7_linear_2_63)" stroke-width="0.549291"/>
<g style="mix-blend-mode:screen" filter="url(#filter6_f_2_63)">
<path d="M13.2283 16.0855C6.06413 18.6731 0.59967 21.7985 1.02303 23.0662C1.44639 24.334 7.59725 23.2641 14.7614 20.6765C21.9255 18.0889 27.39 14.9635 26.9666 13.6957C26.5432 12.4279 20.3924 13.4979 13.2283 16.0855Z" stroke="url(#paint8_linear_2_63)" stroke-width="0.549291"/>
</g>
<g filter="url(#filter7_d_2_63)">
<path d="M24.1286 7.36177C24.0182 7.34534 23.9393 7.24737 23.9404 7.12559C23.9353 6.03816 23.8161 5.86916 22.8473 5.60594C22.7358 5.57474 22.6619 5.46284 22.6777 5.34812C22.6938 5.23175 22.7929 5.14897 22.9088 5.14834C23.907 5.15229 24.0454 5.046 24.3698 4.0094C24.406 3.89443 24.5051 3.82298 24.614 3.8392C24.726 3.85589 24.8033 3.95363 24.8052 4.07593C24.8076 5.16124 24.9267 5.33034 25.894 5.59325C26.0084 5.62653 26.0811 5.735 26.0649 5.85294C26.0491 5.96765 25.953 6.05096 25.834 6.05116C24.8338 6.05012 24.6972 6.15496 24.3759 7.19204C24.3364 7.30821 24.236 7.37778 24.1286 7.36177Z" fill="url(#paint9_linear_2_63)"/>
</g>
<path d="M35.132 22V3.852H43.296C44.128 3.852 44.8733 3.99067 45.532 4.268C46.208 4.528 46.78 4.90934 47.248 5.412C47.716 5.89734 48.0713 6.48667 48.314 7.18C48.5567 7.87334 48.678 8.636 48.678 9.468C48.678 10.3173 48.5567 11.0887 48.314 11.782C48.0713 12.458 47.716 13.0473 47.248 13.55C46.78 14.0353 46.208 14.4167 45.532 14.694C44.8733 14.954 44.128 15.084 43.296 15.084H38.564V22H35.132ZM38.564 12.12H42.984C43.6427 12.12 44.1627 11.9467 44.544 11.6C44.9253 11.236 45.116 10.7247 45.116 10.066V8.87001C45.116 8.21134 44.9253 7.70867 44.544 7.362C44.1627 7.01534 43.6427 6.84201 42.984 6.84201H38.564V12.12Z" fill="url(#paint10_linear_2_63)"/>
<path d="M53.2443 6.452C52.5509 6.452 52.0483 6.296 51.7363 5.984C51.4416 5.672 51.2943 5.27334 51.2943 4.788V4.268C51.2943 3.78267 51.4416 3.384 51.7363 3.072C52.0483 2.76 52.5509 2.604 53.2443 2.604C53.9203 2.604 54.4143 2.76 54.7263 3.072C55.0383 3.384 55.1943 3.78267 55.1943 4.268V4.788C55.1943 5.27334 55.0383 5.672 54.7263 5.984C54.4143 6.296 53.9203 6.452 53.2443 6.452ZM51.5803 8.428H54.9083V22H51.5803V8.428Z" fill="url(#paint11_linear_2_63)"/>
<path d="M57.3358 22L61.9638 15.11L57.4398 8.428H61.2358L64.0438 12.926H64.1478L66.9298 8.428H70.4658L65.8638 15.162L70.4918 22H66.6958L63.8358 17.32H63.7318L60.8718 22H57.3358Z" fill="url(#paint12_linear_2_63)"/>
<path d="M78.0135 22.312C77.0082 22.312 76.1069 22.1473 75.3095 21.818C74.5295 21.4713 73.8622 20.9947 73.3075 20.388C72.7702 19.764 72.3542 19.0187 72.0595 18.152C71.7649 17.268 71.6175 16.28 71.6175 15.188C71.6175 14.1133 71.7562 13.1427 72.0335 12.276C72.3282 11.4093 72.7442 10.6727 73.2815 10.066C73.8189 9.442 74.4775 8.96534 75.2575 8.63601C76.0375 8.28934 76.9215 8.116 77.9095 8.116C78.9669 8.116 79.8855 8.298 80.6655 8.662C81.4455 9.026 82.0869 9.52 82.5895 10.144C83.0922 10.768 83.4649 11.496 83.7075 12.328C83.9675 13.1427 84.0975 14.018 84.0975 14.954V16.046H75.0755V16.384C75.0755 17.372 75.3529 18.1693 75.9075 18.776C76.4622 19.3653 77.2855 19.66 78.3775 19.66C79.2095 19.66 79.8855 19.4867 80.4055 19.14C80.9429 18.7933 81.4195 18.3513 81.8355 17.814L83.6295 19.816C83.0749 20.596 82.3122 21.2113 81.3415 21.662C80.3882 22.0953 79.2789 22.312 78.0135 22.312ZM77.9615 10.612C77.0775 10.612 76.3755 10.9067 75.8555 11.496C75.3355 12.0853 75.0755 12.848 75.0755 13.784V13.992H80.6395V13.758C80.6395 12.822 80.4055 12.068 79.9375 11.496C79.4869 10.9067 78.8282 10.612 77.9615 10.612Z" fill="url(#paint13_linear_2_63)"/>
<path d="M90.3536 22C89.2096 22 88.3689 21.714 87.8316 21.142C87.2942 20.57 87.0256 19.764 87.0256 18.724V2.76H90.3536V19.348H92.1476V22H90.3536Z" fill="url(#paint14_linear_2_63)"/>
<path d="M98.9358 22L93.0078 3.852H96.5178L99.2998 12.692L100.912 18.724H100.99L102.576 12.692L105.358 3.852H108.764L102.836 22H98.9358Z" fill="url(#paint15_linear_2_63)"/>
<path d="M115.693 22.312C114.688 22.312 113.787 22.1473 112.989 21.818C112.209 21.4713 111.542 20.9947 110.987 20.388C110.45 19.764 110.034 19.0187 109.739 18.152C109.445 17.268 109.297 16.28 109.297 15.188C109.297 14.1133 109.436 13.1427 109.713 12.276C110.008 11.4093 110.424 10.6727 110.961 10.066C111.499 9.442 112.157 8.96534 112.937 8.63601C113.717 8.28934 114.601 8.116 115.589 8.116C116.647 8.116 117.565 8.298 118.345 8.662C119.125 9.026 119.767 9.52 120.269 10.144C120.772 10.768 121.145 11.496 121.387 12.328C121.647 13.1427 121.777 14.018 121.777 14.954V16.046H112.755V16.384C112.755 17.372 113.033 18.1693 113.587 18.776C114.142 19.3653 114.965 19.66 116.057 19.66C116.889 19.66 117.565 19.4867 118.085 19.14C118.623 18.7933 119.099 18.3513 119.515 17.814L121.309 19.816C120.755 20.596 119.992 21.2113 119.021 21.662C118.068 22.0953 116.959 22.312 115.693 22.312ZM115.641 10.612C114.757 10.612 114.055 10.9067 113.535 11.496C113.015 12.0853 112.755 12.848 112.755 13.784V13.992H118.319V13.758C118.319 12.822 118.085 12.068 117.617 11.496C117.167 10.9067 116.508 10.612 115.641 10.612Z" fill="url(#paint16_linear_2_63)"/>
<path d="M128.033 22C126.889 22 126.049 21.714 125.511 21.142C124.974 20.57 124.705 19.764 124.705 18.724V2.76H128.033V19.348H129.827V22H128.033Z" fill="url(#paint17_linear_2_63)"/>
<path d="M135.082 22L130.558 8.428H133.834L135.732 14.278L137.058 19.114H137.24L138.566 14.278L140.412 8.428H143.584L139.034 22H135.082Z" fill="url(#paint18_linear_2_63)"/>
<path d="M151.088 22.312C150.082 22.312 149.181 22.1473 148.384 21.818C147.604 21.4713 146.936 20.9947 146.382 20.388C145.844 19.764 145.428 19.0187 145.134 18.152C144.839 17.268 144.692 16.28 144.692 15.188C144.692 14.1133 144.83 13.1427 145.108 12.276C145.402 11.4093 145.818 10.6727 146.356 10.066C146.893 9.442 147.552 8.96534 148.332 8.63601C149.112 8.28934 149.996 8.116 150.984 8.116C152.041 8.116 152.96 8.298 153.74 8.662C154.52 9.026 155.161 9.52 155.664 10.144C156.166 10.768 156.539 11.496 156.782 12.328C157.042 13.1427 157.172 14.018 157.172 14.954V16.046H148.15V16.384C148.15 17.372 148.427 18.1693 148.982 18.776C149.536 19.3653 150.36 19.66 151.452 19.66C152.284 19.66 152.96 19.4867 153.48 19.14C154.017 18.7933 154.494 18.3513 154.91 17.814L156.704 19.816C156.149 20.596 155.386 21.2113 154.416 21.662C153.462 22.0953 152.353 22.312 151.088 22.312ZM151.036 10.612C150.152 10.612 149.45 10.9067 148.93 11.496C148.41 12.0853 148.15 12.848 148.15 13.784V13.992H153.714V13.758C153.714 12.822 153.48 12.068 153.012 11.496C152.561 10.9067 151.902 10.612 151.036 10.612Z" fill="url(#paint19_linear_2_63)"/>
<path d="M164.338 22C163.194 22 162.318 21.7053 161.712 21.116C161.122 20.5093 160.828 19.6513 160.828 18.542V11.08H158.826V8.428H159.866C160.368 8.428 160.706 8.31534 160.88 8.09C161.07 7.84734 161.166 7.492 161.166 7.024V4.71H164.156V8.428H166.938V11.08H164.156V19.348H166.73V22H164.338Z" fill="url(#paint20_linear_2_63)"/>
<defs>
<filter id="filter0_d_2_63" x="4.64898" y="4.30758" width="2.58387" height="2.61635" filterUnits="userSpaceOnUse" color-interpolation-filters="sRGB">
<feFlood flood-opacity="0" result="BackgroundImageFix"/>
<feColorMatrix in="SourceAlpha" type="matrix" values="0 0 0 0 0 0 0 0 0 0 0 0 0 0 0 0 0 0 127 0" result="hardAlpha"/>
<feOffset/>
<feGaussianBlur stdDeviation="0.442949"/>
<feComposite in2="hardAlpha" operator="out"/>
<feColorMatrix type="matrix" values="0 0 0 0 0.592157 0 0 0 0 0.392157 0 0 0 0 1 0 0 0 1 0"/>
<feBlend mode="normal" in2="BackgroundImageFix" result="effect1_dropShadow_2_63"/>
<feBlend mode="normal" in="SourceGraphic" in2="effect1_dropShadow_2_63" result="shape"/>
</filter>
<filter id="filter1_d_2_63" x="0.466855" y="16.6759" width="2.58387" height="2.61629" filterUnits="userSpaceOnUse" color-interpolation-filters="sRGB">
<feFlood flood-opacity="0" result="BackgroundImageFix"/>
<feColorMatrix in="SourceAlpha" type="matrix" values="0 0 0 0 0 0 0 0 0 0 0 0 0 0 0 0 0 0 127 0" result="hardAlpha"/>
<feOffset/>
<feGaussianBlur stdDeviation="0.442949"/>
<feComposite in2="hardAlpha" operator="out"/>
<feColorMatrix type="matrix" values="0 0 0 0 0.592157 0 0 0 0 0.392157 0 0 0 0 1 0 0 0 1 0"/>
<feBlend mode="normal" in2="BackgroundImageFix" result="effect1_dropShadow_2_63"/>
<feBlend mode="normal" in="SourceGraphic" in2="effect1_dropShadow_2_63" result="shape"/>
</filter>
<filter id="filter2_d_2_63" x="24.5074" y="20.0711" width="2.5839" height="2.6164" filterUnits="userSpaceOnUse" color-interpolation-filters="sRGB">
<feFlood flood-opacity="0" result="BackgroundImageFix"/>
<feColorMatrix in="SourceAlpha" type="matrix" values="0 0 0 0 0 0 0 0 0 0 0 0 0 0 0 0 0 0 127 0" result="hardAlpha"/>
<feOffset/>
<feGaussianBlur stdDeviation="0.442949"/>
<feComposite in2="hardAlpha" operator="out"/>
<feColorMatrix type="matrix" values="0 0 0 0 0.592157 0 0 0 0 0.392157 0 0 0 0 1 0 0 0 1 0"/>
<feBlend mode="normal" in2="BackgroundImageFix" result="effect1_dropShadow_2_63"/>
<feBlend mode="normal" in="SourceGraphic" in2="effect1_dropShadow_2_63" result="shape"/>
</filter>
<filter id="filter3_d_2_63" x="6.28617" y="13.9844" width="0.995991" height="1.00856" filterUnits="userSpaceOnUse" color-interpolation-filters="sRGB">
<feFlood flood-opacity="0" result="BackgroundImageFix"/>
<feColorMatrix in="SourceAlpha" type="matrix" values="0 0 0 0 0 0 0 0 0 0 0 0 0 0 0 0 0 0 127 0" result="hardAlpha"/>
<feOffset/>
<feGaussianBlur stdDeviation="0.170743"/>
<feComposite in2="hardAlpha" operator="out"/>
<feColorMatrix type="matrix" values="0 0 0 0 0.592157 0 0 0 0 0.392157 0 0 0 0 1 0 0 0 1 0"/>
<feBlend mode="normal" in2="BackgroundImageFix" result="effect1_dropShadow_2_63"/>
<feBlend mode="normal" in="SourceGraphic" in2="effect1_dropShadow_2_63" result="shape"/>
</filter>
<filter id="filter4_d_2_63" x="11.9982" y="0.463378" width="1.56514" height="1.58481" filterUnits="userSpaceOnUse" color-interpolation-filters="sRGB">
<feFlood flood-opacity="0" result="BackgroundImageFix"/>
<feColorMatrix in="SourceAlpha" type="matrix" values="0 0 0 0 0 0 0 0 0 0 0 0 0 0 0 0 0 0 127 0" result="hardAlpha"/>
<feOffset/>
<feGaussianBlur stdDeviation="0.268311"/>
<feComposite in2="hardAlpha" operator="out"/>
<feColorMatrix type="matrix" values="0 0 0 0 0.592157 0 0 0 0 0.392157 0 0 0 0 1 0 0 0 1 0"/>
<feBlend mode="normal" in2="BackgroundImageFix" result="effect1_dropShadow_2_63"/>
<feBlend mode="normal" in="SourceGraphic" in2="effect1_dropShadow_2_63" result="shape"/>
</filter>
<filter id="filter5_d_2_63" x="0.988902" y="9.55254" width="4.62037" height="4.71871" filterUnits="userSpaceOnUse" color-interpolation-filters="sRGB">
<feFlood flood-opacity="0" result="BackgroundImageFix"/>
<feColorMatrix in="SourceAlpha" type="matrix" values="0 0 0 0 0 0 0 0 0 0 0 0 0 0 0 0 0 0 127 0" result="hardAlpha"/>
<feOffset dy="0.281606"/>
<feGaussianBlur stdDeviation="0.540812"/>
<feComposite in2="hardAlpha" operator="out"/>
<feColorMatrix type="matrix" values="0 0 0 0 0.220722 0 0 0 0 0.210451 0 0 0 0 0.241667 0 0 0 0.6 0"/>
<feBlend mode="normal" in2="BackgroundImageFix" result="effect1_dropShadow_2_63"/>
<feBlend mode="normal" in="SourceGraphic" in2="effect1_dropShadow_2_63" result="shape"/>
</filter>
<filter id="filter6_f_2_63" x="0.470799" y="12.6334" width="27.048" height="11.4952" filterUnits="userSpaceOnUse" color-interpolation-filters="sRGB">
<feFlood flood-opacity="0" result="BackgroundImageFix"/>
<feBlend mode="normal" in="SourceGraphic" in2="BackgroundImageFix" result="shape"/>
<feGaussianBlur stdDeviation="0.127195" result="effect1_foregroundBlur_2_63"/>
</filter>
<filter id="filter7_d_2_63" x="20.5451" y="2.26113" width="7.65249" height="7.78805" filterUnits="userSpaceOnUse" color-interpolation-filters="sRGB">
<feFlood flood-opacity="0" result="BackgroundImageFix"/>
<feColorMatrix in="SourceAlpha" type="matrix" values="0 0 0 0 0 0 0 0 0 0 0 0 0 0 0 0 0 0 127 0" result="hardAlpha"/>
<feOffset dy="0.554677"/>
<feGaussianBlur stdDeviation="1.06523"/>
<feComposite in2="hardAlpha" operator="out"/>
<feColorMatrix type="matrix" values="0 0 0 0 0.296824 0 0 0 0 0.244184 0 0 0 0 0.404167 0 0 0 0.6 0"/>
<feBlend mode="normal" in2="BackgroundImageFix" result="effect1_dropShadow_2_63"/>
<feBlend mode="normal" in="SourceGraphic" in2="effect1_dropShadow_2_63" result="shape"/>
</filter>
<linearGradient id="paint0_linear_2_63" x1="5.55894" y1="5.57208" x2="6.36629" y2="5.58843" gradientUnits="userSpaceOnUse">
<stop stop-color="#26A4FF"/>
<stop offset="1" stop-color="#0D9AFF"/>
</linearGradient>
<linearGradient id="paint1_linear_2_63" x1="1.37681" y1="17.9404" x2="2.18417" y2="17.9566" gradientUnits="userSpaceOnUse">
<stop stop-color="#26A4FF"/>
<stop offset="1" stop-color="#0D9AFF"/>
</linearGradient>
<linearGradient id="paint2_linear_2_63" x1="25.4175" y1="21.3356" x2="26.2248" y2="21.352" gradientUnits="userSpaceOnUse">
<stop stop-color="#26A4FF"/>
<stop offset="1" stop-color="#0D9AFF"/>
</linearGradient>
<linearGradient id="paint3_linear_2_63" x1="6.63694" y1="14.472" x2="6.94815" y2="14.4782" gradientUnits="userSpaceOnUse">
<stop stop-color="#26A4FF"/>
<stop offset="1" stop-color="#0D9AFF"/>
</linearGradient>
<linearGradient id="paint4_linear_2_63" x1="12.5495" y1="1.22933" x2="13.0385" y2="1.23921" gradientUnits="userSpaceOnUse">
<stop stop-color="#26A4FF"/>
<stop offset="1" stop-color="#0D9AFF"/>
</linearGradient>
<linearGradient id="paint5_linear_2_63" x1="4.43403" y1="11.3173" x2="1.99721" y2="11.7212" gradientUnits="userSpaceOnUse">
<stop stop-color="#26A4FF"/>
<stop offset="1" stop-color="#0D9AFF"/>
</linearGradient>
<linearGradient id="paint6_linear_2_63" x1="1.25656" y1="1" x2="26.1973" y2="24.9816" gradientUnits="userSpaceOnUse">
<stop stop-color="#868CFF"/>
<stop offset="1" stop-color="#4318FF"/>
</linearGradient>
<linearGradient id="paint7_linear_2_63" x1="1.43908" y1="24.8028" x2="0.370687" y2="21.7888" gradientUnits="userSpaceOnUse">
<stop stop-color="#3F5FFF"/>
<stop offset="1" stop-color="#3F5FFF" stop-opacity="0"/>
</linearGradient>
<linearGradient id="paint8_linear_2_63" x1="1.43908" y1="24.8025" x2="0.370687" y2="21.7886" gradientUnits="userSpaceOnUse">
<stop stop-color="#1DA0FF"/>
<stop offset="1" stop-color="#199FFF" stop-opacity="0.13"/>
</linearGradient>
<linearGradient id="paint9_linear_2_63" x1="25.9896" y1="5.65576" x2="22.6083" y2="5.25926" gradientUnits="userSpaceOnUse">
<stop stop-color="#26A4FF"/>
<stop offset="1" stop-color="#0D9AFF"/>
</linearGradient>
<linearGradient id="paint10_linear_2_63" x1="33" y1="12" x2="168" y2="12" gradientUnits="userSpaceOnUse">
<stop stop-color="#868CFF"/>
<stop offset="1" stop-color="#4318FF"/>
</linearGradient>
<linearGradient id="paint11_linear_2_63" x1="33" y1="12" x2="168" y2="12" gradientUnits="userSpaceOnUse">
<stop stop-color="#868CFF"/>
<stop offset="1" stop-color="#4318FF"/>
</linearGradient>
<linearGradient id="paint12_linear_2_63" x1="33" y1="12" x2="168" y2="12" gradientUnits="userSpaceOnUse">
<stop stop-color="#868CFF"/>
<stop offset="1" stop-color="#4318FF"/>
</linearGradient>
<linearGradient id="paint13_linear_2_63" x1="33" y1="12" x2="168" y2="12" gradientUnits="userSpaceOnUse">
<stop stop-color="#868CFF"/>
<stop offset="1" stop-color="#4318FF"/>
</linearGradient>
<linearGradient id="paint14_linear_2_63" x1="33" y1="12" x2="168" y2="12" gradientUnits="userSpaceOnUse">
<stop stop-color="#868CFF"/>
<stop offset="1" stop-color="#4318FF"/>
</linearGradient>
<linearGradient id="paint15_linear_2_63" x1="33" y1="12" x2="168" y2="12" gradientUnits="userSpaceOnUse">
<stop stop-color="#868CFF"/>
<stop offset="1" stop-color="#4318FF"/>
</linearGradient>
<linearGradient id="paint16_linear_2_63" x1="33" y1="12" x2="168" y2="12" gradientUnits="userSpaceOnUse">
<stop stop-color="#868CFF"/>
<stop offset="1" stop-color="#4318FF"/>
</linearGradient>
<linearGradient id="paint17_linear_2_63" x1="33" y1="12" x2="168" y2="12" gradientUnits="userSpaceOnUse">
<stop stop-color="#868CFF"/>
<stop offset="1" stop-color="#4318FF"/>
</linearGradient>
<linearGradient id="paint18_linear_2_63" x1="33" y1="12" x2="168" y2="12" gradientUnits="userSpaceOnUse">
<stop stop-color="#868CFF"/>
<stop offset="1" stop-color="#4318FF"/>
</linearGradient>
<linearGradient id="paint19_linear_2_63" x1="33" y1="12" x2="168" y2="12" gradientUnits="userSpaceOnUse">
<stop stop-color="#868CFF"/>
<stop offset="1" stop-color="#4318FF"/>
</linearGradient>
<linearGradient id="paint20_linear_2_63" x1="33" y1="12" x2="168" y2="12" gradientUnits="userSpaceOnUse">
<stop stop-color="#868CFF"/>
<stop offset="1" stop-color="#4318FF"/>
</linearGradient>
</defs>
</svg>
